<?xml version="1.0" standalone="no"?>
<!DOCTYPE svg PUBLIC "-//W3C//DTD SVG 20010904//EN"
 "http://www.w3.org/TR/2001/REC-SVG-20010904/DTD/svg10.dtd">
<svg version="1.0" xmlns="http://www.w3.org/2000/svg"
 width="777.000000pt" height="1280.000000pt" viewBox="0 0 777.000000 1280.000000"
 preserveAspectRatio="xMidYMid meet">
<metadata>
Created by potrace 1.15, written by Peter Selinger 2001-2017
</metadata>
<g transform="translate(0.000000,1280.000000) scale(0.100000,-0.100000)"
fill="#e91e63" stroke="none">
<path d="M6775 12787 c-2 -7 -36 -167 -75 -357 -40 -190 -76 -366 -82 -392 -9
-47 -11 -49 -109 -108 -55 -33 -103 -60 -107 -60 -4 0 -47 23 -96 50 -49 28
-94 50 -100 50 -6 0 -64 -53 -128 -117 -90 -92 -128 -140 -172 -214 -49 -85
-69 -108 -158 -185 -57 -48 -113 -96 -124 -106 -21 -19 -29 -19 -400 2 l-379
22 -135 -49 c-161 -58 -152 -33 -90 -269 l42 -161 100 -78 c62 -48 97 -83 94
-91 -3 -7 -60 -86 -126 -175 l-122 -160 -36 6 c-20 4 -288 57 -596 118 l-559
112 -109 190 c-60 105 -113 193 -116 197 -4 3 -108 -51 -232 -121 l-225 -128
-62 -219 c-35 -120 -69 -224 -76 -232 -8 -7 -104 -91 -213 -185 l-199 -172
-66 -129 c-39 -76 -74 -132 -85 -136 -11 -4 -94 -17 -185 -30 l-167 -22 -56
-77 -57 -77 -367 -165 -366 -164 -418 -318 c-230 -175 -418 -321 -418 -325 0
-31 30 -326 34 -329 2 -2 55 -18 117 -35 63 -17 116 -33 118 -34 2 -2 18 -65
36 -141 35 -155 33 -153 120 -114 l42 19 7 81 c4 44 12 81 17 81 5 0 160 -83
344 -184 l335 -184 77 29 c43 16 82 28 86 26 5 -1 -22 -40 -59 -87 l-68 -83
60 -53 c32 -30 62 -54 67 -54 4 0 7 -5 7 -12 0 -6 -81 -194 -180 -416 -99
-223 -179 -406 -177 -408 1 -2 144 -53 317 -114 173 -61 316 -112 318 -114 1
-2 -5 -20 -14 -40 l-18 -36 -60 6 c-34 3 -172 13 -309 23 l-247 16 -269 -360
c-244 -327 -267 -361 -248 -367 12 -4 159 -18 327 -33 168 -15 315 -30 328
-33 21 -7 9 -20 -122 -131 -80 -69 -145 -126 -143 -127 2 -2 45 -17 96 -34
l93 -30 27 20 c15 10 34 26 41 35 21 25 27 18 40 -45 7 -33 14 -60 16 -60 2 0
49 28 104 61 l102 61 39 -38 c21 -21 39 -41 39 -45 0 -3 -47 -45 -105 -93 -96
-80 -105 -90 -105 -122 0 -19 3 -34 7 -34 11 0 433 254 433 260 0 3 -47 60
-105 127 -58 67 -105 123 -105 125 0 2 67 2 148 0 l149 -3 84 -144 84 -143 45
-7 c110 -15 108 -14 157 -81 26 -35 48 -64 49 -64 1 0 9 31 19 68 l16 69 142
38 c78 21 145 38 149 39 16 2 258 -170 258 -184 0 -8 -11 -55 -24 -105 -14
-49 -24 -90 -23 -91 30 -15 157 -109 157 -115 0 -5 -11 -33 -24 -63 l-25 -55
104 -111 c84 -90 106 -120 118 -161 15 -50 15 -51 -30 -185 l-45 -134 49 -58
c27 -31 66 -77 86 -103 l36 -45 -34 -128 c-36 -134 -41 -148 -50 -125 -77 210
-106 284 -114 289 -18 11 -451 73 -458 66 -4 -4 -11 -62 -14 -129 -4 -67 -8
-123 -8 -124 -1 0 -42 22 -91 49 -50 28 -92 49 -93 47 -1 -2 -24 -50 -52 -106
l-49 -103 99 -102 c55 -57 104 -109 110 -115 8 -10 39 9 129 78 65 50 120 89
122 86 2 -2 24 -192 48 -421 l43 -417 57 -85 c48 -72 60 -84 79 -79 30 7 218
45 223 45 6 0 4 -52 -3 -78 -4 -16 -43 -48 -120 -98 l-113 -74 5 -92 6 -93
-116 -98 -115 -98 14 -32 c7 -18 17 -31 22 -30 5 0 57 4 116 8 l107 7 -5 -68
c-3 -38 -7 -75 -10 -82 -2 -9 -35 -12 -118 -12 l-116 0 -84 -175 c-47 -97 -88
-185 -91 -195 -5 -14 15 -50 69 -128 l75 -109 -58 -189 c-32 -104 -58 -190
-57 -191 1 -1 60 4 131 12 71 8 133 11 138 6 4 -4 7 -28 5 -52 l-3 -43 -187
-32 c-104 -17 -190 -33 -192 -35 -3 -3 43 -210 48 -216 2 -2 58 -14 127 -28
68 -14 131 -28 141 -31 14 -4 11 -20 -27 -133 l-43 -129 31 -23 c17 -13 39
-30 48 -36 15 -11 34 8 154 150 75 89 141 163 146 165 5 2 27 -26 50 -62 23
-36 44 -66 48 -66 4 0 112 102 240 227 180 175 235 223 242 212 52 -78 80
-132 73 -138 -5 -5 -51 -38 -101 -75 -51 -37 -93 -71 -93 -74 1 -6 156 -121
195 -144 7 -4 52 40 118 117 l106 124 -84 143 c-47 79 -85 148 -85 153 0 6 36
23 81 37 l80 27 59 -80 58 -80 -5 -78 -6 -79 31 -16 c17 -9 33 -16 36 -16 4 0
156 307 156 316 0 1 -39 -8 -87 -21 -48 -14 -91 -21 -95 -17 -10 10 -58 146
-53 150 4 5 536 162 547 162 3 0 10 -29 13 -65 6 -55 11 -66 29 -70 140 -33
429 -95 432 -92 2 2 20 75 39 163 20 87 38 165 40 172 3 9 26 4 86 -18 46 -16
83 -29 84 -27 1 1 -8 46 -20 100 -12 53 -20 97 -17 97 3 0 40 -31 82 -70 l78
-69 138 -3 c130 -3 139 -4 143 -23 2 -11 7 -30 12 -43 l9 -23 50 38 c50 37
491 570 516 623 14 30 187 840 181 847 -3 2 -40 -13 -83 -35 -44 -22 -96 -47
-117 -56 l-39 -16 6 168 c3 92 11 446 17 787 l11 620 -697 1245 -697 1245
-329 274 -330 273 -224 51 -225 51 1 45 c0 25 6 93 12 151 l12 105 70 35 70
35 29 132 29 132 -53 66 c-45 56 -51 68 -39 80 8 7 113 71 235 143 l221 131
99 116 c54 63 104 115 109 115 6 0 59 -13 120 -28 l110 -28 280 120 c154 66
281 120 283 121 1 1 -14 31 -35 65 -26 44 -34 65 -25 68 7 2 149 72 315 155
l301 152 62 145 61 144 308 141 309 140 38 335 c20 184 37 350 38 367 0 26
-20 60 -89 157 l-90 125 349 463 348 463 158 104 158 104 114 -37 c63 -20 116
-35 117 -34 1 2 10 18 19 36 l17 32 -111 233 -111 233 -72 -8 c-83 -9 -63 -23
-188 139 l-71 92 30 90 c27 81 29 91 14 95 -70 21 -314 89 -390 110 -68 18
-94 22 -97 13z"/>
<path d="M5211 924 c-67 -64 -121 -119 -121 -123 0 -4 25 -15 55 -25 l55 -17
0 -81 c0 -78 1 -80 23 -74 12 3 32 6 43 6 18 0 24 10 36 58 12 50 17 57 41 60
21 3 28 10 36 40 21 85 21 82 -6 82 l-24 0 7 83 c3 45 7 86 8 91 0 6 -6 11
-15 13 -11 3 -62 -40 -138 -113z"/>
</g>
</svg>
